<svg width="46" height="45" viewBox="0 0 46 45" fill="none" xmlns="http://www.w3.org/2000/svg">
<path d="M19.25 15V13.125M19.25 23.4375V21.5625M19.25 31.875V30M10.25 7.5H35.75C37.8502 7.5 38.9003 7.5 39.7025 7.90873C40.4081 8.26825 40.9818 8.84193 41.3413 9.54754C41.75 10.3497 41.75 11.3998 41.75 13.5V15.9375C38.1256 15.9375 35.1875 18.8756 35.1875 22.5C35.1875 26.1244 38.1256 29.0625 41.75 29.0625V31.5C41.75 33.6002 41.75 34.6503 41.3413 35.4525C40.9818 36.1581 40.4081 36.7317 39.7025 37.0913C38.9003 37.5 37.8502 37.5 35.75 37.5H10.25C8.1498 37.5 7.0997 37.5 6.29754 37.0913C5.59193 36.7317 5.01825 36.1581 4.65873 35.4525C4.25 34.6503 4.25 33.6002 4.25 31.5V29.0625C7.87437 29.0625 10.8125 26.1244 10.8125 22.5C10.8125 18.8756 7.87437 15.9375 4.25 15.9375V13.5C4.25 11.3998 4.25 10.3497 4.65873 9.54754C5.01825 8.84193 5.59193 8.26825 6.29754 7.90873C7.0997 7.5 8.1498 7.5 10.25 7.5Z" stroke="white" stroke-width="3" stroke-linecap="round" stroke-linejoin="round"/>
</svg>
