<?xml version="1.0" encoding="UTF-8"?><svg xmlns="http://www.w3.org/2000/svg" viewBox="0 0 213.62 92.44"><defs><style>.d{fill:#ec6640;}.e{fill:#fff;}.f{fill:#db1b4d;}.g{fill:#13b8ea;}.h{fill:#7c1eda;}</style></defs><g id="a"/><g id="b"><g id="c"><g><path class="e" d="M201.2,6.45h0c.92,.89,2.19,1.3,3.45,1.12h0c2.21-.31,4.26,1.18,4.65,3.37h0c.22,1.25,1.01,2.34,2.13,2.93h0c1.97,1.04,2.75,3.46,1.77,5.46h0c-.56,1.14-.56,2.48,0,3.63h0c.98,2,.19,4.42-1.77,5.46h0c-1.12,.6-1.91,1.68-2.13,2.93h0c-.38,2.19-2.44,3.69-4.65,3.37h0c-1.26-.18-2.53,.24-3.45,1.12h0c-1.6,1.55-4.14,1.55-5.74,0h0c-.92-.89-2.19-1.3-3.45-1.12h0c-2.21,.31-4.26-1.18-4.65-3.37h0c-.22-1.25-1.01-2.34-2.13-2.93h0c-1.97-1.04-2.75-3.46-1.77-5.46h0c.56-1.14,.56-2.48,0-3.63h0c-.98-2-.19-4.42,1.77-5.46h0c1.12-.6,1.91-1.68,2.13-2.93h0c.38-2.19,2.44-3.69,4.65-3.37h0c1.26,.18,2.53-.24,3.45-1.12h0c1.6-1.55,4.14-1.55,5.74,0Z"/><path class="g" d="M49.39,2.13h0c.22,.22,.54,.32,.84,.27h0c.54-.08,1.04,.29,1.14,.83h0c.05,.31,.25,.57,.52,.72h0c.48,.26,.67,.85,.43,1.34h0c-.14,.28-.14,.61,0,.89h0c.24,.49,.05,1.08-.43,1.34h0c-.28,.15-.47,.41-.52,.72h0c-.09,.54-.6,.9-1.14,.83h0c-.31-.04-.62,.06-.84,.27h0c-.39,.38-1.01,.38-1.41,0h0c-.22-.22-.54-.32-.84-.27h0c-.54,.08-1.04-.29-1.14-.83h0c-.05-.31-.25-.57-.52-.72h0c-.48-.26-.67-.85-.43-1.34h0c.14-.28,.14-.61,0-.89h0c-.24-.49-.05-1.08,.43-1.34h0c.28-.15,.47-.41,.52-.72h0c.09-.54,.6-.9,1.14-.83h0c.31,.04,.62-.06,.84-.27h0c.39-.38,1.01-.38,1.41,0Z"/><path class="h" d="M8.33,28.13h0c.42,.41,1,.6,1.58,.51h0c1.01-.14,1.95,.54,2.13,1.55h0c.1,.58,.46,1.07,.98,1.35h0c.9,.48,1.26,1.59,.81,2.5h0c-.26,.52-.26,1.14,0,1.66h0c.45,.92,.09,2.03-.81,2.5h0c-.52,.27-.88,.77-.98,1.35h0c-.18,1.01-1.12,1.69-2.13,1.55h0c-.58-.08-1.16,.11-1.58,.51h0c-.73,.71-1.9,.71-2.63,0h0c-.42-.41-1-.6-1.58-.51h0c-1.01,.14-1.95-.54-2.13-1.55h0c-.1-.58-.46-1.07-.98-1.35h0c-.9-.48-1.26-1.59-.81-2.5h0c.26-.52,.26-1.14,0-1.66h0c-.45-.92-.09-2.03,.81-2.5h0c.52-.27,.88-.77,.98-1.35h0c.18-1.01,1.12-1.69,2.13-1.55h0c.58,.08,1.16-.11,1.58-.51h0c.73-.71,1.9-.71,2.63,0Z"/><path class="d" d="M71.47,77.74h0c.44,.43,1.05,.62,1.66,.54h0c1.06-.15,2.05,.57,2.23,1.62h0c.11,.6,.48,1.12,1.03,1.41h0c.95,.5,1.32,1.66,.85,2.63h0c-.27,.55-.27,1.19,0,1.74h0c.47,.96,.09,2.12-.85,2.63h0c-.54,.29-.92,.81-1.03,1.41h0c-.19,1.05-1.17,1.77-2.23,1.62h0c-.61-.09-1.22,.11-1.66,.54h0c-.77,.74-1.99,.74-2.76,0h0c-.44-.43-1.05-.62-1.66-.54h0c-1.06,.15-2.05-.57-2.23-1.62h0c-.11-.6-.48-1.12-1.03-1.41h0c-.95-.5-1.32-1.66-.85-2.63h0c.27-.55,.27-1.19,0-1.74h0c-.47-.96-.09-2.12,.85-2.63h0c.54-.29,.92-.81,1.03-1.41h0c.19-1.05,1.17-1.77,2.23-1.62h0c.61,.09,1.22-.11,1.66-.54h0c.77-.74,1.99-.74,2.76,0Z"/><path class="f" d="M141.15,3.59h0c.44,.43,1.05,.62,1.66,.54h0c1.06-.15,2.05,.57,2.23,1.62h0c.11,.6,.48,1.12,1.03,1.41h0c.95,.5,1.32,1.66,.85,2.63h0c-.27,.55-.27,1.19,0,1.74h0c.47,.96,.09,2.12-.85,2.63h0c-.54,.29-.92,.81-1.03,1.41h0c-.19,1.05-1.17,1.77-2.23,1.62h0c-.61-.09-1.22,.11-1.66,.54h0c-.77,.74-1.99,.74-2.76,0h0c-.44-.43-1.05-.62-1.66-.54h0c-1.06,.15-2.05-.57-2.23-1.62h0c-.11-.6-.48-1.12-1.03-1.41h0c-.95-.5-1.32-1.66-.85-2.63h0c.27-.55,.27-1.19,0-1.74h0c-.47-.96-.09-2.12,.85-2.63h0c.54-.29,.92-.81,1.03-1.41h0c.19-1.05,1.17-1.77,2.23-1.62h0c.61,.09,1.22-.11,1.66-.54h0c.77-.74,1.99-.74,2.76,0Z"/><g><g><g><path class="h" d="M132.58,25.56v40.91c0,2.04-1.65,3.69-3.69,3.69h-49.34c-2.03,0-3.68-1.65-3.68-3.68V25.56c0-2.04,1.65-3.69,3.69-3.69h5.31c1.14,0,2.25,.46,2.96,1.35,3.85,4.8,9.76,7.87,16.4,7.87s12.54-3.07,16.4-7.87c.71-.89,1.83-1.35,2.96-1.35h5.31c2.04,0,3.69,1.65,3.69,3.69Z"/><path class="e" d="M120.15,43.36h-31.88c-1.5,0-2.64,1.36-2.41,2.85,1.37,8.9,9.06,15.72,18.35,15.72s16.98-6.82,18.35-15.72c.23-1.49-.91-2.85-2.41-2.85Z"/></g><path d="M92.42,85.49h-.53c-.29,0-.53-.24-.53-.53s.24-.53,.53-.53h.53c.75,0,1.36-.61,1.36-1.36v-12.92c0-.29,.24-.53,.53-.53s.53,.24,.53,.53v12.92c0,1.33-1.08,2.42-2.42,2.42Z"/><path d="M118.02,85.49h-.53c-1.33,0-2.42-1.08-2.42-2.42v-12.92c0-.29,.24-.53,.53-.53s.53,.24,.53,.53v12.92c0,.75,.61,1.36,1.36,1.36h.53c.29,0,.53,.24,.53,.53s-.24,.53-.53,.53Z"/><path d="M131.37,45.58c-.29,0-.53-.24-.53-.53s.24-.53,.53-.53c7.45,0,13.51-6.06,13.51-13.51,0-.29,.24-.53,.53-.53s.53,.24,.53,.53c0,8.03-6.54,14.57-14.57,14.57Z"/><path d="M70.23,63.63c-.29,0-.53-.24-.53-.53,0-8.03,4-14.57,8.92-14.57,.29,0,.53,.24,.53,.53s-.24,.53-.53,.53c-4.34,0-7.86,6.06-7.86,13.51,0,.29-.24,.53-.53,.53Z"/></g><g><g><path class="d" d="M69.56,35.36v30.43c0,1.52-1.23,2.74-2.74,2.74H30.12c-1.51,0-2.74-1.23-2.74-2.74v-30.44c0-1.52,1.23-2.74,2.74-2.74h3.95c.85,0,1.68,.34,2.2,1,2.87,3.57,7.26,5.85,12.2,5.85s9.33-2.28,12.2-5.85c.53-.66,1.36-1,2.2-1h3.95c1.52,0,2.74,1.23,2.74,2.74Z"/><path class="e" d="M58.49,50.73h-20.06c-.95,0-1.66,.86-1.52,1.79,.86,5.6,5.7,9.89,11.55,9.89s10.69-4.29,11.55-9.89c.14-.94-.57-1.79-1.52-1.79Z"/></g><path d="M39.69,79.94h-.39c-.22,0-.39-.18-.39-.39s.18-.39,.39-.39h.39c.56,0,1.01-.45,1.01-1.01v-9.61c0-.22,.18-.39,.39-.39s.39,.18,.39,.39v9.61c0,.99-.81,1.8-1.8,1.8Z"/><path d="M58.73,79.94h-.39c-.99,0-1.8-.81-1.8-1.8v-9.61c0-.22,.18-.39,.39-.39s.39,.18,.39,.39v9.61c0,.56,.45,1.01,1.01,1.01h.39c.22,0,.39,.18,.39,.39s-.18,.39-.39,.39Z"/><path d="M23.19,63.67c-.22,0-.39-.18-.39-.39,0-5.98,2.98-10.84,6.64-10.84,.22,0,.39,.18,.39,.39s-.18,.39-.39,.39c-3.22,0-5.85,4.51-5.85,10.05,0,.22-.18,.39-.39,.39Z"/></g><g><g><path class="g" d="M135.06,35.51v30.43c0,1.52,1.23,2.74,2.74,2.74h36.7c1.51,0,2.74-1.23,2.74-2.74v-30.44c0-1.52-1.23-2.74-2.74-2.74h-3.95c-.85,0-1.68,.34-2.2,1-2.87,3.57-7.26,5.85-12.2,5.85s-9.33-2.28-12.2-5.85c-.53-.66-1.36-1-2.2-1h-3.95c-1.52,0-2.74,1.23-2.74,2.74Z"/><path class="e" d="M147.2,52.12h17.93c.85,0,1.48,.77,1.36,1.6-.77,5.01-5.1,8.84-10.32,8.84s-9.55-3.83-10.32-8.84c-.13-.84,.51-1.6,1.36-1.6Z"/></g><path d="M165.33,80.09h-.39c-.99,0-1.8-.81-1.8-1.8v-9.61c0-.22,.18-.39,.39-.39s.39,.18,.39,.39v9.61c0,.56,.45,1.01,1.01,1.01h.39c.22,0,.39,.18,.39,.39s-.18,.39-.39,.39Z"/><path d="M146.28,80.09h-.39c-.22,0-.39-.18-.39-.39s.18-.39,.39-.39h.39c.56,0,1.01-.45,1.01-1.01v-9.61c0-.22,.18-.39,.39-.39s.39,.18,.39,.39v9.61c0,.99-.81,1.8-1.8,1.8Z"/><path d="M181.44,63.83c-.22,0-.39-.18-.39-.39,0-5.54-2.62-10.05-5.85-10.05-.22,0-.39-.18-.39-.39s.18-.39,.39-.39c3.66,0,6.64,4.86,6.64,10.84,0,.22-.18,.39-.39,.39Z"/></g></g><circle class="e" cx="92.06" cy="7.82" r="2.24"/><path class="e" d="M16.97,.43l1.09,2.76c.07,.17,.21,.31,.38,.38l2.76,1.09c.57,.22,.57,1.03,0,1.26l-2.76,1.09c-.17,.07-.31,.21-.38,.38l-1.09,2.76c-.22,.57-1.03,.57-1.26,0l-1.09-2.76c-.07-.17-.21-.31-.38-.38l-2.76-1.09c-.57-.22-.57-1.03,0-1.26l2.76-1.09c.17-.07,.31-.21,.38-.38L15.72,.43c.22-.57,1.03-.57,1.26,0Z"/><path class="g" d="M140.23,78.8l.51,1.29c.03,.08,.1,.15,.18,.18l1.29,.51c.27,.1,.27,.48,0,.59l-1.29,.51c-.08,.03-.15,.1-.18,.18l-.51,1.29c-.1,.27-.48,.27-.59,0l-.51-1.29c-.03-.08-.1-.15-.18-.18l-1.29-.51c-.27-.1-.27-.48,0-.59l1.29-.51c.08-.03,.15-.1,.18-.18l.51-1.29c.1-.27,.48-.27,.59,0Z"/></g></g></g></svg>