<?xml version="1.0" encoding="UTF-8"?><svg xmlns="http://www.w3.org/2000/svg" viewBox="0 0 28.98 21.33"><defs><style>.d{fill:#ec6640;}.e{fill:#7c1eda;}</style></defs><g id="a"/><g id="b"><g id="c"><g><path class="e" d="M25.49,10.27c0-2.56,1.21-4.85,3.1-6.3,.24-.19,.39-.46,.39-.77V.97c0-.54-.43-.97-.97-.97H14.24V21.33h13.77c.54,0,.97-.44,.97-.97v-3.02c0-.3-.15-.58-.39-.77-1.88-1.46-3.1-3.74-3.1-6.3Z"/><path class="d" d="M12.29,21.33H.67c-.53,0-.85-.6-.55-1.04l2.94-4.3c.08-.11,.12-.24,.12-.37V.66c0-.37,.3-.66,.66-.66H12.29V21.33Z"/></g></g></g></svg>